# xmcd
#
# Track frame offsets:
#	150
#	20922
#	40151
#	56332
#	68871
#	95069
#	113103
#	130145
#	149253
#	163679
#	183838
#
# Disc length: 2615 seconds
# Revision: 0
# Processed by: cddbd v1.5.2PL0 Copyright (c) Steve Scherf et al.
# Submitted via: dBpowerAMP V12.0
#
DISCID=990a350b
DTITLE=Craig Korth - Suspicious Minds
DYEAR=2008
DGENRE=Bluegrass
TTITLE0=Burmis Tree
TTITLE1=Burning Birch
TTITLE2=Suspicious Minds
TTITLE3=The Old Cow Road
TTITLE4=Carl's Place
TTITLE5=B Ochenta Uno
TTITLE6=Pick Me Up On Your Way Down
TTITLE7=Steele Heights
TTITLE8=Work TO Drive, Drive To Work
TTITLE9=Rosen Lake
TTITLE10=Justa Given'er
EXTD=
EXTT0=
EXTT1=
EXTT2=
EXTT3=
EXTT4=
EXTT5=
EXTT6=
EXTT7=
EXTT8=
EXTT9=
EXTT10=
PLAYORDER=
